<svg width="427" height="173" viewBox="0 0 427 173" fill="none" xmlns="http://www.w3.org/2000/svg">
<path d="M56.4041 150.91V151.627H40.3298L27.5086 126.463H16.6488V151.627H1.62695V81.9718H27.9391C33.3291 81.9718 37.9537 82.785 41.8128 84.4116C45.7038 86.0063 48.6859 88.3824 50.7589 91.5398C52.832 94.6654 53.8686 98.4926 53.8686 103.021C53.8686 107.965 52.8001 112.015 50.6633 115.173C48.5264 118.298 45.4646 120.77 41.4779 122.588L56.4041 150.91ZM16.6488 114.312H27.9391C31.5112 114.312 34.2221 113.419 36.072 111.633C37.9218 109.847 38.8467 107.391 38.8467 104.265C38.8467 101.076 37.9218 98.5883 36.072 96.8022C34.254 95.0162 31.5431 94.1232 27.9391 94.1232H16.6488V114.312Z" fill="white"/>
<path d="M52.8824 125.267C52.8824 120.196 53.8392 115.667 55.7528 111.681C57.6983 107.694 60.5209 104.568 64.2206 102.304C67.9202 100.039 72.3375 98.9072 77.4723 98.9072C82.6391 98.9072 87.0723 100.039 90.7719 102.304C94.5035 104.568 97.3261 107.694 99.2397 111.681C101.185 115.667 102.158 120.196 102.158 125.267V126.272C102.158 131.343 101.185 135.872 99.2397 139.859C97.3261 143.813 94.5194 146.923 90.8198 149.187C87.1201 151.452 82.7029 152.584 77.568 152.584C72.4013 152.584 67.9521 151.452 64.2206 149.187C60.5209 146.923 57.6983 143.813 55.7528 139.859C53.8392 135.872 52.8824 131.343 52.8824 126.272V125.267ZM67.3302 126.272C67.3302 130.737 68.1435 134.309 69.77 136.988C71.3966 139.635 73.9959 140.959 77.568 140.959C81.0763 140.959 83.6437 139.619 85.2703 136.94C86.8969 134.261 87.7102 130.705 87.7102 126.272V125.267C87.7102 120.866 86.8969 117.31 85.2703 114.599C83.6437 111.888 81.0444 110.532 77.4723 110.532C73.964 110.532 71.3966 111.904 69.77 114.647C68.1435 117.358 67.3302 120.898 67.3302 125.267V126.272Z" fill="white"/>
<path d="M123.091 130.912C110.844 128.297 104.72 123.019 104.72 115.077C104.72 112.143 105.55 109.448 107.208 106.992C108.899 104.536 111.322 102.575 114.48 101.108C117.637 99.6408 121.321 98.9072 125.531 98.9072C129.964 98.9072 133.839 99.6248 137.156 101.06C140.473 102.463 143.025 104.441 144.811 106.992C146.597 109.512 147.49 112.398 147.49 115.651H133.042C133.042 113.578 132.42 111.968 131.176 110.819C129.932 109.639 128.035 109.049 125.483 109.049C123.378 109.049 121.688 109.544 120.412 110.532C119.168 111.521 118.546 112.797 118.546 114.36C118.546 115.859 119.248 117.071 120.651 117.996C122.087 118.92 124.51 119.702 127.923 120.34C132.005 121.105 135.466 122.11 138.304 123.354C141.143 124.566 143.391 126.256 145.05 128.425C146.74 130.593 147.585 133.352 147.585 136.701C147.585 139.731 146.676 142.458 144.858 144.882C143.072 147.274 140.505 149.155 137.156 150.527C133.839 151.898 129.98 152.584 125.579 152.584C120.922 152.584 116.888 151.739 113.475 150.049C110.095 148.326 107.511 146.126 105.725 143.447C103.971 140.767 103.094 137.977 103.094 135.074H116.728C116.824 137.562 117.717 139.412 119.407 140.624C121.098 141.804 123.267 142.394 125.914 142.394C128.37 142.394 130.251 141.932 131.559 141.007C132.898 140.05 133.568 138.774 133.568 137.179C133.568 136.191 133.265 135.362 132.659 134.692C132.085 133.99 131.033 133.336 129.502 132.73C128.003 132.124 125.866 131.518 123.091 130.912Z" fill="white"/>
<path d="M196.971 130.434H164.248C164.791 133.655 166.13 136.223 168.267 138.136C170.404 140.018 173.147 140.959 176.496 140.959C178.983 140.959 181.28 140.496 183.385 139.571C185.521 138.615 187.339 137.195 188.838 135.314L195.775 143.303C193.957 145.918 191.294 148.119 187.786 149.905C184.31 151.691 180.227 152.584 175.539 152.584C170.244 152.584 165.636 151.468 161.713 149.235C157.822 147.003 154.824 143.973 152.719 140.146C150.646 136.318 149.609 132.092 149.609 127.468V125.65C149.609 120.483 150.582 115.875 152.528 111.824C154.473 107.774 157.28 104.616 160.947 102.352C164.615 100.055 168.953 98.9072 173.96 98.9072C178.84 98.9072 183.002 99.9438 186.446 102.017C189.891 104.09 192.506 107.04 194.292 110.867C196.078 114.663 196.971 119.144 196.971 124.31V130.434ZM182.811 119.622C182.747 116.815 181.965 114.599 180.466 112.972C178.999 111.346 176.799 110.532 173.864 110.532C171.122 110.532 168.969 111.441 167.406 113.259C165.875 115.077 164.87 117.581 164.392 120.77H182.811V119.622Z" fill="white"/>
<path d="M228.573 98.9072C233.771 98.9072 237.79 100.47 240.629 103.596C243.467 106.689 244.886 111.76 244.886 118.809V151.627H230.439V118.761C230.439 115.699 229.785 113.578 228.477 112.398C227.17 111.186 225.144 110.58 222.401 110.58C220.52 110.58 218.877 110.979 217.474 111.776C216.102 112.574 214.986 113.706 214.125 115.173V151.627H199.677V99.864H213.216L213.695 105.844C215.512 103.58 217.681 101.857 220.201 100.677C222.72 99.4973 225.511 98.9072 228.573 98.9072Z" fill="white"/>
<path d="M275.294 98.9072C279.727 98.9072 283.459 100.023 286.489 102.256C289.518 104.457 291.783 107.534 293.282 111.489C294.781 115.412 295.53 119.973 295.53 125.172V126.176C295.53 131.439 294.781 136.063 293.282 140.05C291.783 144.005 289.534 147.082 286.536 149.283C283.538 151.484 279.823 152.584 275.39 152.584C269.872 152.584 265.471 150.431 262.186 146.126L261.516 151.627H248.551V114.886V78.1445H262.999V104.361C266.125 100.725 270.223 98.9072 275.294 98.9072ZM281.083 125.172C281.083 120.675 280.381 117.118 278.978 114.503C277.606 111.888 275.166 110.58 271.658 110.58C267.448 110.58 264.562 112.271 262.999 115.651V135.84C264.53 139.221 267.448 140.911 271.754 140.911C275.294 140.911 277.734 139.651 279.073 137.132C280.413 134.612 281.083 130.96 281.083 126.176V125.172Z" fill="white"/>
<path d="M346.146 130.434H313.423C313.965 133.655 315.305 136.223 317.442 138.136C319.578 140.018 322.321 140.959 325.67 140.959C328.158 140.959 330.454 140.496 332.559 139.571C334.696 138.615 336.514 137.195 338.013 135.314L344.95 143.303C343.132 145.918 340.469 148.119 336.96 149.905C333.484 151.691 329.402 152.584 324.713 152.584C319.419 152.584 314.81 151.468 310.888 149.235C306.996 147.003 303.999 143.973 301.894 140.146C299.82 136.318 298.784 132.092 298.784 127.468V125.65C298.784 120.483 299.757 115.875 301.702 111.824C303.648 107.774 306.454 104.616 310.122 102.352C313.79 100.055 318.127 98.9072 323.135 98.9072C328.014 98.9072 332.176 99.9438 335.621 102.017C339.065 104.09 341.681 107.04 343.467 110.867C345.253 114.663 346.146 119.144 346.146 124.31V130.434ZM331.985 119.622C331.921 116.815 331.14 114.599 329.641 112.972C328.174 111.346 325.973 110.532 323.039 110.532C320.296 110.532 318.143 111.441 316.581 113.259C315.05 115.077 314.045 117.581 313.567 120.77H331.985V119.622Z" fill="white"/>
<path d="M374.386 98.9072C375.12 98.9072 375.901 98.971 376.73 99.0986C377.56 99.1943 378.229 99.3218 378.74 99.4813L378.548 113.451C376.699 113.196 374.992 113.068 373.429 113.068C368.263 113.068 364.898 114.774 363.335 118.187V151.627H348.887V99.864H362.474L362.905 106.131C364.18 103.803 365.791 102.017 367.736 100.773C369.714 99.5291 371.93 98.9072 374.386 98.9072Z" fill="white"/>
<path d="M427 99.864V149.761C427 154.418 425.948 158.421 423.843 161.769C421.738 165.118 418.772 167.654 414.945 169.376C411.149 171.13 406.732 172.007 401.693 172.007C398.185 172.007 394.612 171.306 390.977 169.902C387.341 168.531 384.502 166.585 382.461 164.066L388.728 155.215C390.323 156.969 392.173 158.341 394.278 159.33C396.383 160.318 398.663 160.813 401.119 160.813C404.723 160.813 407.513 159.84 409.491 157.894C411.5 155.981 412.505 153.27 412.505 149.761V147.178C409.315 150.782 405.201 152.584 400.162 152.584C395.952 152.584 392.252 151.468 389.063 149.235C385.906 146.971 383.466 143.845 381.743 139.859C380.053 135.872 379.208 131.375 379.208 126.368V125.363C379.208 120.132 380.053 115.524 381.743 111.537C383.466 107.55 385.906 104.457 389.063 102.256C392.252 100.023 395.984 98.9072 400.258 98.9072C405.871 98.9072 410.24 100.821 413.366 104.648L413.892 99.864H427ZM403.798 140.911C407.816 140.911 410.719 139.428 412.505 136.462V114.982C410.751 112.047 407.88 110.58 403.894 110.58C400.577 110.58 398.025 111.952 396.239 114.695C394.485 117.437 393.608 120.993 393.608 125.363V126.368C393.608 130.673 394.469 134.181 396.191 136.892C397.913 139.571 400.449 140.911 403.798 140.911Z" fill="white"/>
<path d="M57.2648 61.9054C55.9572 63.4362 54.1393 64.9352 51.811 66.4023C49.4828 67.8694 46.5008 69.1133 42.8649 70.1339C39.229 71.1226 35.051 71.6169 30.3308 71.6169C24.271 71.6169 18.9607 70.2934 14.3999 67.6462C9.83916 64.999 6.29897 61.1559 3.77938 56.1167C1.25979 51.0456 0 44.9699 0 37.8895V33.8231C0 26.7427 1.21195 20.667 3.63586 15.5959C6.09167 10.5249 9.52022 6.66575 13.9215 4.01859C18.3547 1.33953 23.5055 0 29.3739 0C38.1447 0 44.7785 2.07308 49.2755 6.21924C53.7725 10.3654 56.4197 16.0743 57.217 23.3461H42.6735C42.1314 19.6783 40.8556 16.8876 38.8463 14.974C36.837 13.0604 33.8231 12.1036 29.8045 12.1036C25.0843 12.1036 21.4643 13.9375 18.9448 17.6052C16.4571 21.273 15.2132 26.647 15.2132 33.7274V37.8895C15.2132 45.0337 16.5527 50.4237 19.2318 54.0595C21.9428 57.6954 25.9454 59.5133 31.2397 59.5133C36.3427 59.5133 40.0104 58.429 42.243 56.2602V44.7307H29.5653V33.8231H57.2648V61.9054Z" fill="white"/>
<path d="M105.614 18.8969V70.6601H92.0754L91.6926 65.2542C90.0661 67.2954 88.0727 68.8741 85.7126 69.9904C83.3525 71.0747 80.6575 71.6169 77.6276 71.6169C72.2376 71.6169 68.0117 70.0541 64.9499 66.9286C61.92 63.803 60.4051 58.9552 60.4051 52.3851V18.8969H74.805V52.4808C74.805 55.0323 75.4269 56.914 76.6708 58.126C77.9465 59.3379 79.7007 59.9439 81.9332 59.9439C86.3664 59.9439 89.4441 58.3971 91.1664 55.3034V18.8969H105.614Z" fill="white"/>
<path d="M137.459 17.9401C142.657 17.9401 146.676 19.5029 149.514 22.6285C152.353 25.7221 153.772 30.7932 153.772 37.8417V70.6601H139.324V37.7938C139.324 34.7321 138.671 32.6111 137.363 31.4311C136.055 30.2191 134.03 29.6131 131.287 29.6131C129.405 29.6131 127.763 30.0118 126.36 30.8092C124.988 31.6065 123.872 32.7387 123.011 34.2058V70.6601H108.563V18.8969H122.102L122.58 24.877C124.398 22.6125 126.567 20.8903 129.087 19.7102C131.606 18.5301 134.397 17.9401 137.459 17.9401Z" fill="white"/>
<path d="M185.617 17.9401C190.815 17.9401 194.834 19.5029 197.672 22.6285C200.511 25.7221 201.93 30.7932 201.93 37.8417V70.6601H187.482V37.7938C187.482 34.7321 186.829 32.6111 185.521 31.4311C184.213 30.2191 182.188 29.6131 179.445 29.6131C177.563 29.6131 175.921 30.0118 174.518 30.8092C173.146 31.6065 172.03 32.7387 171.169 34.2058V70.6601H156.721V18.8969H170.26L170.738 24.877C172.556 22.6125 174.725 20.8903 177.245 19.7102C179.764 18.5301 182.555 17.9401 185.617 17.9401Z" fill="white"/>
<path d="M248.722 57.8868C248.722 60.821 248.897 63.197 249.248 65.015C249.599 66.8329 250.125 68.4435 250.827 69.8468V70.6601H236.331C235.693 69.4163 235.231 67.8694 234.944 66.0196C231.659 69.7512 227.337 71.6169 221.979 71.6169C218.726 71.6169 215.76 70.9472 213.081 69.6076C210.402 68.2681 208.281 66.4183 206.718 64.0582C205.187 61.698 204.422 59.0349 204.422 56.0688C204.422 50.615 206.447 46.421 210.498 43.4868C214.548 40.5207 220.512 39.0377 228.39 39.0377H234.274V36.1194C234.274 33.7274 233.668 31.8776 232.456 30.57C231.244 29.2304 229.426 28.5607 227.002 28.5607C224.802 28.5607 223.08 29.0869 221.836 30.1394C220.624 31.16 220.018 32.6271 220.018 34.5407H205.57C205.57 31.447 206.479 28.6404 208.297 26.1208C210.147 23.6012 212.746 21.6079 216.095 20.1408C219.476 18.6737 223.367 17.9401 227.768 17.9401C231.85 17.9401 235.47 18.6258 238.628 19.9972C241.785 21.3687 244.257 23.4258 246.043 26.1686C247.829 28.9115 248.722 32.2603 248.722 36.2151V57.8868ZM225.232 60.6615C227.337 60.6615 229.187 60.215 230.782 59.322C232.377 58.3971 233.541 57.2808 234.274 55.9732V47.3141H228.773C225.424 47.3141 222.92 48.0476 221.262 49.5147C219.635 50.9499 218.822 52.8316 218.822 55.1599C218.822 56.7864 219.396 58.11 220.544 59.1306C221.724 60.1512 223.287 60.6615 225.232 60.6615Z" fill="white"/>
<path d="M278.648 17.9401C279.382 17.9401 280.163 18.0039 280.992 18.1315C281.822 18.2272 282.491 18.3547 283.002 18.5142L282.81 32.4836C280.96 32.2284 279.254 32.1008 277.691 32.1008C272.525 32.1008 269.16 33.8071 267.597 37.2198V70.6601H253.149V18.8969H266.736L267.166 25.164C268.442 22.8358 270.053 21.0497 271.998 19.8059C273.976 18.562 276.192 17.9401 278.648 17.9401Z" fill="white"/>
</svg>
