<svg width="230" height="250" viewBox="0 0 230 250" fill="none" xmlns="http://www.w3.org/2000/svg">
<path d="M15.92 15.864V33H18.08V18.744H18.128L23.48 33H25.424L30.776 18.744H30.824V33H32.984V15.864H29.864L24.44 30.264L19.04 15.864H15.92ZM42.5143 34.656C42.2743 35.264 42.0343 35.776 41.7943 36.192C41.5703 36.608 41.3143 36.944 41.0263 37.2C40.7543 37.472 40.4423 37.664 40.0903 37.776C39.7543 37.904 39.3623 37.968 38.9143 37.968C38.6743 37.968 38.4343 37.952 38.1943 37.92C37.9543 37.888 37.7223 37.832 37.4983 37.752V35.88C37.6743 35.96 37.8743 36.024 38.0983 36.072C38.3383 36.136 38.5383 36.168 38.6983 36.168C39.1143 36.168 39.4583 36.064 39.7303 35.856C40.0183 35.664 40.2343 35.384 40.3783 35.016L41.2183 32.928L36.2983 20.592H38.6023L42.2263 30.744H42.2743L45.7543 20.592H47.9143L42.5143 34.656ZM62.9459 17.784V33H65.2259V17.784H70.9379V15.864H57.2339V17.784H62.9459ZM79.6473 25.608H72.5193C72.5513 25.128 72.6553 24.68 72.8313 24.264C73.0073 23.832 73.2473 23.456 73.5513 23.136C73.8553 22.816 74.2153 22.568 74.6313 22.392C75.0633 22.2 75.5433 22.104 76.0713 22.104C76.5833 22.104 77.0473 22.2 77.4633 22.392C77.8953 22.568 78.2633 22.816 78.5673 23.136C78.8873 23.44 79.1353 23.808 79.3113 24.24C79.5033 24.672 79.6153 25.128 79.6473 25.608ZM81.6153 29.064H79.5993C79.4233 29.88 79.0553 30.488 78.4953 30.888C77.9513 31.288 77.2473 31.488 76.3833 31.488C75.7113 31.488 75.1273 31.376 74.6313 31.152C74.1353 30.928 73.7273 30.632 73.4073 30.264C73.0873 29.88 72.8553 29.448 72.7113 28.968C72.5673 28.472 72.5033 27.952 72.5193 27.408H81.8073C81.8393 26.656 81.7673 25.864 81.5913 25.032C81.4313 24.2 81.1273 23.432 80.6793 22.728C80.2473 22.024 79.6633 21.448 78.9273 21C78.2073 20.536 77.2953 20.304 76.1913 20.304C75.3433 20.304 74.5593 20.464 73.8393 20.784C73.1353 21.104 72.5193 21.552 71.9913 22.128C71.4793 22.704 71.0793 23.384 70.7913 24.168C70.5033 24.952 70.3593 25.816 70.3593 26.76C70.3913 27.704 70.5273 28.576 70.7673 29.376C71.0233 30.176 71.3993 30.864 71.8953 31.44C72.3913 32.016 72.9993 32.464 73.7193 32.784C74.4553 33.104 75.3193 33.264 76.3113 33.264C77.7193 33.264 78.8873 32.912 79.8153 32.208C80.7433 31.504 81.3433 30.456 81.6153 29.064ZM93.5459 24.576H95.6579C95.5779 23.84 95.3859 23.208 95.0819 22.68C94.7779 22.136 94.3859 21.688 93.9059 21.336C93.4419 20.984 92.8979 20.728 92.2739 20.568C91.6659 20.392 91.0099 20.304 90.3059 20.304C89.3299 20.304 88.4739 20.48 87.7379 20.832C87.0019 21.168 86.3859 21.64 85.8899 22.248C85.4099 22.84 85.0499 23.544 84.8099 24.36C84.5699 25.16 84.4499 26.024 84.4499 26.952C84.4499 27.88 84.5699 28.736 84.8099 29.52C85.0659 30.288 85.4339 30.952 85.9139 31.512C86.4099 32.072 87.0179 32.504 87.7379 32.808C88.4739 33.112 89.3139 33.264 90.2579 33.264C91.8419 33.264 93.0899 32.848 94.0019 32.016C94.9299 31.184 95.5059 30 95.7299 28.464H93.6419C93.5139 29.424 93.1619 30.168 92.5859 30.696C92.0259 31.224 91.2419 31.488 90.2339 31.488C89.5939 31.488 89.0419 31.36 88.5779 31.104C88.1139 30.848 87.7379 30.512 87.4499 30.096C87.1619 29.664 86.9459 29.176 86.8019 28.632C86.6739 28.088 86.6099 27.528 86.6099 26.952C86.6099 26.328 86.6739 25.728 86.8019 25.152C86.9299 24.56 87.1379 24.04 87.4259 23.592C87.7299 23.144 88.1299 22.784 88.6259 22.512C89.1219 22.24 89.7379 22.104 90.4739 22.104C91.3379 22.104 92.0259 22.32 92.5379 22.752C93.0499 23.184 93.3859 23.792 93.5459 24.576ZM99.2126 15.864V33H101.253V25.992C101.253 25.432 101.325 24.92 101.469 24.456C101.629 23.976 101.861 23.56 102.165 23.208C102.469 22.856 102.845 22.584 103.293 22.392C103.757 22.2 104.301 22.104 104.925 22.104C105.709 22.104 106.325 22.328 106.773 22.776C107.221 23.224 107.445 23.832 107.445 24.6V33H109.485V24.84C109.485 24.168 109.413 23.56 109.269 23.016C109.141 22.456 108.909 21.976 108.573 21.576C108.237 21.176 107.797 20.864 107.253 20.64C106.709 20.416 106.029 20.304 105.213 20.304C104.845 20.304 104.461 20.344 104.061 20.424C103.677 20.504 103.301 20.632 102.933 20.808C102.581 20.968 102.261 21.184 101.973 21.456C101.685 21.712 101.461 22.032 101.301 22.416H101.253V15.864H99.2126ZM131.876 20.88H134.036C134.004 19.936 133.82 19.128 133.484 18.456C133.164 17.768 132.716 17.2 132.14 16.752C131.58 16.304 130.924 15.976 130.172 15.768C129.42 15.56 128.604 15.456 127.724 15.456C126.94 15.456 126.172 15.56 125.42 15.768C124.684 15.96 124.02 16.264 123.428 16.68C122.852 17.08 122.388 17.6 122.036 18.24C121.684 18.864 121.508 19.608 121.508 20.472C121.508 21.256 121.66 21.912 121.964 22.44C122.284 22.952 122.7 23.376 123.212 23.712C123.74 24.032 124.332 24.296 124.988 24.504C125.644 24.696 126.308 24.872 126.98 25.032C127.668 25.176 128.34 25.32 128.996 25.464C129.652 25.608 130.236 25.8 130.748 26.04C131.276 26.264 131.692 26.56 131.996 26.928C132.316 27.296 132.476 27.776 132.476 28.368C132.476 28.992 132.348 29.504 132.092 29.904C131.836 30.304 131.5 30.624 131.084 30.864C130.668 31.088 130.196 31.248 129.668 31.344C129.156 31.44 128.644 31.488 128.132 31.488C127.492 31.488 126.868 31.408 126.26 31.248C125.652 31.088 125.116 30.84 124.652 30.504C124.204 30.168 123.836 29.744 123.548 29.232C123.276 28.704 123.14 28.08 123.14 27.36H120.98C120.98 28.4 121.164 29.304 121.532 30.072C121.916 30.824 122.428 31.448 123.068 31.944C123.724 32.424 124.476 32.784 125.324 33.024C126.188 33.264 127.1 33.384 128.06 33.384C128.844 33.384 129.628 33.288 130.412 33.096C131.212 32.92 131.932 32.632 132.572 32.232C133.212 31.816 133.732 31.288 134.132 30.648C134.548 29.992 134.756 29.208 134.756 28.296C134.756 27.448 134.596 26.744 134.276 26.184C133.972 25.624 133.556 25.16 133.028 24.792C132.516 24.424 131.932 24.136 131.276 23.928C130.62 23.704 129.948 23.512 129.26 23.352C128.588 23.192 127.924 23.048 127.268 22.92C126.612 22.776 126.02 22.6 125.492 22.392C124.98 22.184 124.564 21.92 124.244 21.6C123.94 21.264 123.788 20.832 123.788 20.304C123.788 19.744 123.892 19.28 124.1 18.912C124.324 18.528 124.612 18.224 124.964 18C125.332 17.776 125.748 17.616 126.212 17.52C126.676 17.424 127.148 17.376 127.628 17.376C128.812 17.376 129.78 17.656 130.532 18.216C131.3 18.76 131.748 19.648 131.876 20.88ZM141.223 20.592V16.872H139.183V20.592H137.071V22.392H139.183V30.288C139.183 30.864 139.239 31.328 139.351 31.68C139.463 32.032 139.631 32.304 139.855 32.496C140.095 32.688 140.399 32.824 140.767 32.904C141.151 32.968 141.607 33 142.135 33H143.695V31.2H142.759C142.439 31.2 142.175 31.192 141.967 31.176C141.775 31.144 141.623 31.088 141.511 31.008C141.399 30.928 141.319 30.816 141.271 30.672C141.239 30.528 141.223 30.336 141.223 30.096V22.392H143.695V20.592H141.223ZM158.153 32.952C157.801 33.16 157.313 33.264 156.689 33.264C156.161 33.264 155.737 33.12 155.417 32.832C155.113 32.528 154.961 32.04 154.961 31.368C154.401 32.04 153.745 32.528 152.993 32.832C152.257 33.12 151.457 33.264 150.593 33.264C150.033 33.264 149.497 33.2 148.985 33.072C148.489 32.944 148.057 32.744 147.689 32.472C147.321 32.2 147.025 31.848 146.801 31.416C146.593 30.968 146.489 30.432 146.489 29.808C146.489 29.104 146.609 28.528 146.849 28.08C147.089 27.632 147.401 27.272 147.785 27C148.185 26.712 148.633 26.496 149.129 26.352C149.641 26.208 150.161 26.088 150.689 25.992C151.249 25.88 151.777 25.8 152.273 25.752C152.785 25.688 153.233 25.608 153.617 25.512C154.001 25.4 154.305 25.248 154.529 25.056C154.753 24.848 154.865 24.552 154.865 24.168C154.865 23.72 154.777 23.36 154.601 23.088C154.441 22.816 154.225 22.608 153.953 22.464C153.697 22.32 153.401 22.224 153.065 22.176C152.745 22.128 152.425 22.104 152.105 22.104C151.241 22.104 150.521 22.272 149.945 22.608C149.369 22.928 149.057 23.544 149.009 24.456H146.969C147.001 23.688 147.161 23.04 147.449 22.512C147.737 21.984 148.121 21.56 148.601 21.24C149.081 20.904 149.625 20.664 150.233 20.52C150.857 20.376 151.521 20.304 152.225 20.304C152.785 20.304 153.337 20.344 153.881 20.424C154.441 20.504 154.945 20.672 155.393 20.928C155.841 21.168 156.201 21.512 156.473 21.96C156.745 22.408 156.881 22.992 156.881 23.712V30.096C156.881 30.576 156.905 30.928 156.953 31.152C157.017 31.376 157.209 31.488 157.529 31.488C157.705 31.488 157.913 31.448 158.153 31.368V32.952ZM154.841 26.592C154.585 26.784 154.249 26.928 153.833 27.024C153.417 27.104 152.977 27.176 152.513 27.24C152.065 27.288 151.609 27.352 151.145 27.432C150.681 27.496 150.265 27.608 149.897 27.768C149.529 27.928 149.225 28.16 148.985 28.464C148.761 28.752 148.649 29.152 148.649 29.664C148.649 30 148.713 30.288 148.841 30.528C148.985 30.752 149.161 30.936 149.369 31.08C149.593 31.224 149.849 31.328 150.137 31.392C150.425 31.456 150.729 31.488 151.049 31.488C151.721 31.488 152.297 31.4 152.777 31.224C153.257 31.032 153.649 30.8 153.953 30.528C154.257 30.24 154.481 29.936 154.625 29.616C154.769 29.28 154.841 28.968 154.841 28.68V26.592ZM169.676 24.576H171.788C171.708 23.84 171.516 23.208 171.212 22.68C170.908 22.136 170.516 21.688 170.036 21.336C169.572 20.984 169.028 20.728 168.404 20.568C167.796 20.392 167.14 20.304 166.436 20.304C165.46 20.304 164.604 20.48 163.868 20.832C163.132 21.168 162.516 21.64 162.02 22.248C161.54 22.84 161.18 23.544 160.94 24.36C160.7 25.16 160.58 26.024 160.58 26.952C160.58 27.88 160.7 28.736 160.94 29.52C161.196 30.288 161.564 30.952 162.044 31.512C162.54 32.072 163.148 32.504 163.868 32.808C164.604 33.112 165.444 33.264 166.388 33.264C167.972 33.264 169.22 32.848 170.132 32.016C171.06 31.184 171.636 30 171.86 28.464H169.772C169.644 29.424 169.292 30.168 168.716 30.696C168.156 31.224 167.372 31.488 166.364 31.488C165.724 31.488 165.172 31.36 164.708 31.104C164.244 30.848 163.868 30.512 163.58 30.096C163.292 29.664 163.076 29.176 162.932 28.632C162.804 28.088 162.74 27.528 162.74 26.952C162.74 26.328 162.804 25.728 162.932 25.152C163.06 24.56 163.268 24.04 163.556 23.592C163.86 23.144 164.26 22.784 164.756 22.512C165.252 22.24 165.868 22.104 166.604 22.104C167.468 22.104 168.156 22.32 168.668 22.752C169.18 23.184 169.516 23.792 169.676 24.576ZM175.462 15.864V33H177.502V28.296L179.422 26.52L183.67 33H186.262L180.982 25.104L185.902 20.592H183.166L177.502 26.016V15.864H175.462ZM23.5742 67.2617H24.9922L17 83.3867H15.582L23.5742 67.2617ZM37.2898 67.2617H38.7078L30.7156 83.3867H29.2977L37.2898 67.2617ZM23.5742 117.262H24.9922L17 133.387H15.582L23.5742 117.262ZM37.2898 117.262H38.7078L30.7156 133.387H29.2977L37.2898 117.262ZM23.5742 167.262H24.9922L17 183.387H15.582L23.5742 167.262ZM37.2898 167.262H38.7078L30.7156 183.387H29.2977L37.2898 167.262ZM23.5742 217.262H24.9922L17 233.387H15.582L23.5742 217.262ZM37.2898 217.262H38.7078L30.7156 233.387H29.2977L37.2898 217.262Z" fill="white"/>
<path d="M49.5326 76.792H55.766V78.709H49.5326V76.792ZM71.8357 74.9004V78.5186C71.8357 79.8727 71.8654 80.7614 71.9246 81.1846C71.9923 81.5993 72.1658 81.9082 72.4451 82.1113C72.7244 82.3145 73.2492 82.416 74.0193 82.416H74.5906V83H66.7068V82.416H67.1639C67.9002 82.416 68.408 82.3229 68.6873 82.1367C68.9751 81.9505 69.157 81.6628 69.2332 81.2734C69.3094 80.8757 69.3475 79.9574 69.3475 78.5186V70.0762C69.3475 68.7051 69.3094 67.8206 69.2332 67.4229C69.157 67.0251 68.9878 66.75 68.7254 66.5977C68.463 66.4453 67.896 66.3691 67.0242 66.3691H66.7068V65.7852L68.865 65.709C70.5916 65.6497 71.9373 65.6201 72.9021 65.6201C74.6795 65.6201 76.0464 65.7598 77.0027 66.0391C77.9676 66.3184 78.7547 66.8135 79.3641 67.5244C79.9819 68.2354 80.2908 69.1325 80.2908 70.2158C80.2908 71.1553 80.0792 71.9847 79.6561 72.7041C79.2413 73.4235 78.6404 73.9694 77.8533 74.3418C77.0747 74.7142 75.6993 74.9004 73.7273 74.9004H71.8357ZM71.8357 74.2656H73.0672C74.0574 74.2656 74.8572 74.1683 75.4666 73.9736C76.076 73.7705 76.5838 73.3516 76.99 72.7168C77.3963 72.082 77.5994 71.2992 77.5994 70.3682C77.5994 68.9463 77.2482 67.9053 76.5457 67.2451C75.8517 66.5765 74.7218 66.2422 73.1561 66.2422C72.5805 66.2422 72.1404 66.2591 71.8357 66.293V74.2656ZM81.5527 77.7822C81.5527 76.1911 82.0859 74.8623 83.1523 73.7959C84.2188 72.721 85.5306 72.1836 87.0879 72.1836C88.6536 72.1836 89.9697 72.721 91.0361 73.7959C92.1025 74.8708 92.6357 76.1995 92.6357 77.7822C92.6357 79.5342 92.0941 80.9137 91.0107 81.9209C89.9274 82.9196 88.6198 83.4189 87.0879 83.4189C85.556 83.4189 84.2484 82.9111 83.165 81.8955C82.0902 80.8714 81.5527 79.5003 81.5527 77.7822ZM83.6602 77.8457C83.6602 79.6908 83.9606 80.9857 84.5615 81.7305C85.1624 82.4668 86.0046 82.835 87.0879 82.835C88.1966 82.835 89.043 82.4668 89.627 81.7305C90.2194 80.9857 90.5156 79.6908 90.5156 77.8457C90.5156 76.0176 90.2236 74.7142 89.6396 73.9355C89.0557 73.1569 88.2051 72.7676 87.0879 72.7676C85.9792 72.7676 85.1286 73.1569 84.5361 73.9355C83.9521 74.7057 83.6602 76.0091 83.6602 77.8457ZM95.9416 83.3301V79.915H96.4367C97.0122 81.887 98.0406 82.873 99.5217 82.873C100.165 82.873 100.643 82.6784 100.956 82.2891C101.278 81.8997 101.439 81.4723 101.439 81.0068C101.439 80.4652 101.269 80.0208 100.931 79.6738C100.584 79.3268 99.911 78.9079 98.9123 78.417C97.8628 77.9007 97.1096 77.3929 96.6525 76.8936C96.1955 76.4027 95.967 75.7975 95.967 75.0781C95.967 74.3926 96.2124 73.7409 96.7033 73.123C97.1942 72.4967 97.884 72.1836 98.7727 72.1836C99.6783 72.1836 100.427 72.5518 101.02 73.2881C101.147 73.1611 101.312 72.8522 101.515 72.3613H101.985V75.5732H101.515C101.346 74.8031 101.015 74.1429 100.525 73.5928C100.042 73.0342 99.4709 72.7549 98.8107 72.7549C98.3029 72.7549 97.8925 72.9115 97.5793 73.2246C97.2661 73.5378 97.1096 73.9017 97.1096 74.3164C97.1096 74.7734 97.2831 75.167 97.6301 75.4971C97.9686 75.8356 98.6161 76.2207 99.5725 76.6523C101.011 77.304 101.891 77.9388 102.213 78.5566C102.535 79.1829 102.696 79.7839 102.696 80.3594C102.696 81.265 102.395 82.0013 101.794 82.5684C101.202 83.1354 100.453 83.4189 99.5471 83.4189C98.5907 83.4189 97.7401 83.0254 96.9953 82.2383C96.7668 82.4922 96.5806 82.8561 96.4367 83.3301H95.9416ZM112.006 73.1865H108.871V79.4707C108.871 80.4355 108.913 81.0872 108.997 81.4258C109.082 81.7559 109.26 82.0225 109.531 82.2256C109.81 82.4287 110.106 82.5303 110.419 82.5303C111.029 82.5303 111.558 82.1833 112.006 81.4893L112.412 81.7305C112.15 82.2891 111.761 82.7122 111.245 83C110.737 83.2793 110.22 83.4189 109.696 83.4189C109.086 83.4189 108.549 83.2412 108.083 82.8857C107.626 82.5218 107.339 82.0986 107.22 81.6162C107.11 81.1338 107.055 80.2874 107.055 79.0771V73.1865H105.544V72.6025C106.238 72.5856 106.86 72.2936 107.411 71.7266C107.961 71.1595 108.312 70.3639 108.464 69.3398H108.871V72.6025H112.006V73.1865ZM122.675 73.5166C123.395 72.7041 124.123 72.2979 124.859 72.2979C125.265 72.2979 125.578 72.4079 125.798 72.6279C126.027 72.848 126.141 73.0892 126.141 73.3516C126.141 73.9102 125.887 74.1895 125.379 74.1895C125.1 74.1895 124.859 74.016 124.656 73.6689C124.47 73.3473 124.275 73.1865 124.072 73.1865C123.75 73.1865 123.395 73.4066 123.005 73.8467C123.446 74.5407 123.666 75.277 123.666 76.0557C123.666 77.0713 123.302 77.9684 122.574 78.7471C121.846 79.5342 120.619 79.9574 118.892 80.0166C117.098 80.0758 116.201 80.4398 116.201 81.1084C116.201 81.4215 116.404 81.6416 116.81 81.7686C117.208 81.904 118.046 82.0055 119.324 82.0732C120.72 82.141 121.795 82.2721 122.548 82.4668C123.302 82.653 123.903 83.0339 124.351 83.6094C124.8 84.1849 125.024 84.8704 125.024 85.666C125.024 86.7832 124.567 87.6846 123.653 88.3701C122.739 89.0557 121.423 89.3984 119.705 89.3984C118.13 89.3984 116.869 89.0938 115.921 88.4844C114.974 87.875 114.5 87.1048 114.5 86.1738C114.5 85.6576 114.635 85.2344 114.906 84.9043C115.177 84.5742 115.562 84.4092 116.061 84.4092C116.197 84.4092 116.319 84.4303 116.429 84.4727C115.905 85.0482 115.642 85.6576 115.642 86.3008C115.642 87.0456 115.989 87.6592 116.683 88.1416C117.386 88.6325 118.431 88.8779 119.819 88.8779C121.055 88.8779 122.015 88.6283 122.701 88.1289C123.395 87.638 123.742 87.0075 123.742 86.2373C123.742 85.391 123.433 84.7943 122.815 84.4473C122.197 84.1087 121.097 83.9056 119.514 83.8379C117.695 83.7617 116.514 83.5374 115.972 83.165C115.431 82.8011 115.16 82.3314 115.16 81.7559C115.16 80.6471 115.934 79.9489 117.483 79.6611C116.679 79.1872 116.074 78.6455 115.668 78.0361C115.261 77.4268 115.058 76.7454 115.058 75.9922C115.058 74.9342 115.473 74.0371 116.302 73.3008C117.14 72.556 118.13 72.1836 119.273 72.1836C120.686 72.1836 121.821 72.6279 122.675 73.5166ZM116.963 76.2842C116.963 77.376 117.187 78.1758 117.635 78.6836C118.084 79.1914 118.655 79.4453 119.349 79.4453C119.992 79.4453 120.543 79.1956 121 78.6963C121.465 78.1885 121.698 77.3125 121.698 76.0684C121.698 74.8158 121.452 73.9525 120.962 73.4785C120.471 73.0046 119.916 72.7676 119.298 72.7676C118.52 72.7676 117.936 73.0596 117.546 73.6436C117.157 74.2275 116.963 75.1077 116.963 76.2842ZM132.062 74.8369C132.35 74.0837 132.816 73.4531 133.459 72.9453C134.11 72.4375 134.745 72.1836 135.363 72.1836C135.922 72.1836 136.362 72.3571 136.683 72.7041C137.005 73.0511 137.166 73.4066 137.166 73.7705C137.166 74.016 137.081 74.2275 136.912 74.4053C136.751 74.583 136.552 74.6719 136.315 74.6719C135.892 74.6719 135.57 74.3587 135.35 73.7324C135.198 73.3092 134.97 73.0977 134.665 73.0977C134.301 73.0977 133.865 73.3473 133.357 73.8467C132.849 74.3376 132.524 74.8496 132.38 75.3828C132.236 75.916 132.164 76.6481 132.164 77.5791V79.4326C132.164 80.5413 132.177 81.2396 132.202 81.5273C132.236 81.8151 132.359 82.0352 132.57 82.1875C132.782 82.3398 133.158 82.416 133.7 82.416H134.055V83H128.533V82.416H128.8C129.307 82.416 129.667 82.3483 129.879 82.2129C130.099 82.069 130.23 81.8701 130.272 81.6162C130.315 81.3623 130.336 80.6344 130.336 79.4326V76.5C130.336 75.3828 130.319 74.6846 130.285 74.4053C130.26 74.1175 130.141 73.8975 129.929 73.7451C129.718 73.5843 129.341 73.5039 128.8 73.5039H128.533V72.9326C129.329 72.8395 130.37 72.5898 131.656 72.1836C131.901 72.8522 132.037 73.7367 132.062 74.8369ZM148.66 76.1191H141.411C141.377 76.6185 141.36 76.9909 141.36 77.2363C141.36 79.0645 141.644 80.4398 142.211 81.3623C142.786 82.2764 143.641 82.7334 144.775 82.7334C146.316 82.7334 147.408 82.0436 148.051 80.6641H148.66C148.389 81.5273 147.852 82.2044 147.048 82.6953C146.244 83.1777 145.368 83.4189 144.42 83.4189C143.54 83.4189 142.706 83.1989 141.919 82.7588C141.14 82.3102 140.501 81.6797 140.002 80.8672C139.503 80.0547 139.253 79.0687 139.253 77.9092C139.253 76.2673 139.735 74.9046 140.7 73.8213C141.665 72.7295 142.871 72.1836 144.318 72.1836C145.681 72.1836 146.735 72.5983 147.479 73.4277C148.224 74.2572 148.618 75.1543 148.66 76.1191ZM146.438 75.6113C146.464 75.4167 146.477 75.2432 146.477 75.0908C146.477 74.346 146.257 73.7705 145.816 73.3643C145.385 72.9495 144.852 72.7422 144.217 72.7422C142.676 72.7422 141.758 73.6986 141.462 75.6113H146.438ZM152.004 83.3301V79.915H152.499C153.075 81.887 154.103 82.873 155.584 82.873C156.227 82.873 156.706 82.6784 157.019 82.2891C157.34 81.8997 157.501 81.4723 157.501 81.0068C157.501 80.4652 157.332 80.0208 156.993 79.6738C156.646 79.3268 155.974 78.9079 154.975 78.417C153.925 77.9007 153.172 77.3929 152.715 76.8936C152.258 76.4027 152.029 75.7975 152.029 75.0781C152.029 74.3926 152.275 73.7409 152.766 73.123C153.257 72.4967 153.946 72.1836 154.835 72.1836C155.741 72.1836 156.49 72.5518 157.082 73.2881C157.209 73.1611 157.374 72.8522 157.577 72.3613H158.047V75.5732H157.577C157.408 74.8031 157.078 74.1429 156.587 73.5928C156.105 73.0342 155.533 72.7549 154.873 72.7549C154.365 72.7549 153.955 72.9115 153.642 73.2246C153.329 73.5378 153.172 73.9017 153.172 74.3164C153.172 74.7734 153.346 75.167 153.693 75.4971C154.031 75.8356 154.679 76.2207 155.635 76.6523C157.074 77.304 157.954 77.9388 158.276 78.5566C158.597 79.1829 158.758 79.7839 158.758 80.3594C158.758 81.265 158.458 82.0013 157.857 82.5684C157.264 83.1354 156.515 83.4189 155.61 83.4189C154.653 83.4189 153.803 83.0254 153.058 82.2383C152.829 82.4922 152.643 82.8561 152.499 83.3301H152.004ZM49.5326 126.792H55.766V128.709H49.5326V126.792ZM84.7596 133H80.1258C79.3048 132.424 78.048 130.918 76.3553 128.48C75.8136 127.702 75.2508 126.957 74.6668 126.246C74.0828 125.527 73.6808 125.091 73.4607 124.938C73.2407 124.778 72.8979 124.697 72.4324 124.697H71.7469V128.519C71.7469 129.873 71.7765 130.761 71.8357 131.185C71.9035 131.599 72.0727 131.908 72.3436 132.111C72.6229 132.314 73.1518 132.416 73.9305 132.416H74.7557V133H66.5164V132.416H67.075C67.8113 132.416 68.3191 132.323 68.5984 132.137C68.8862 131.951 69.0682 131.663 69.1443 131.273C69.2205 130.876 69.2586 129.957 69.2586 128.519V120.076C69.2586 118.705 69.2205 117.821 69.1443 117.423C69.0682 117.025 68.8989 116.75 68.6365 116.598C68.3742 116.445 67.8071 116.369 66.9354 116.369H66.6434V115.785L69.1063 115.658C70.7482 115.582 72.0516 115.544 73.0164 115.544C74.6583 115.544 75.9913 115.696 77.0154 116.001C78.048 116.306 78.8816 116.805 79.5164 117.499C80.1512 118.193 80.4686 119.022 80.4686 119.987C80.4686 121.113 80.0538 122.074 79.2244 122.869C78.395 123.665 77.1762 124.16 75.5682 124.354C76.2876 124.701 77.4471 125.954 79.0467 128.112C80.3501 129.864 81.3742 131.011 82.1189 131.553C82.8637 132.094 83.7439 132.382 84.7596 132.416V133ZM71.7469 124.113C72.3816 124.096 73.0376 124.071 73.7146 124.037C74.3917 124.003 74.9799 123.91 75.4793 123.758C75.9786 123.605 76.3807 123.385 76.6854 123.098C76.9985 122.801 77.2439 122.416 77.4217 121.942C77.5994 121.468 77.6883 120.884 77.6883 120.19C77.6883 118.98 77.3836 118.011 76.7742 117.283C76.1733 116.555 74.8572 116.191 72.826 116.191C72.5128 116.191 72.1531 116.208 71.7469 116.242V124.113ZM97.5742 131.096H98.0439C97.9678 132.543 97.2568 133.267 95.9111 133.267C95.3356 133.267 94.8786 133.114 94.54 132.81C94.21 132.505 93.9941 132.052 93.8926 131.451C93.0462 132.052 92.2718 132.505 91.5693 132.81C90.8753 133.114 90.2533 133.267 89.7031 133.267C89.0007 133.267 88.3955 133.063 87.8877 132.657C87.3799 132.251 87.126 131.714 87.126 131.045C87.126 130.173 87.5492 129.411 88.3955 128.76C89.2503 128.108 90.4268 127.473 91.9248 126.855L93.8926 126.056V125.548C93.8926 124.828 93.846 124.308 93.7529 123.986C93.6598 123.665 93.4186 123.377 93.0293 123.123C92.64 122.869 92.1279 122.742 91.4932 122.742C90.2236 122.742 89.5169 123.165 89.373 124.012C89.2376 124.875 88.8822 125.307 88.3066 125.307C87.7904 125.307 87.5322 125.061 87.5322 124.57C87.5322 124.088 87.875 123.572 88.5605 123.021C89.2461 122.463 90.3125 122.184 91.7598 122.184C92.8346 122.184 93.6683 122.353 94.2607 122.691C94.8532 123.03 95.2425 123.415 95.4287 123.847C95.6234 124.278 95.7207 124.938 95.7207 125.827V130.029C95.7207 131.011 95.7715 131.642 95.873 131.921C95.9746 132.2 96.1947 132.34 96.5332 132.34C97.0918 132.34 97.4388 131.925 97.5742 131.096ZM93.8926 126.652L92.5088 127.211C90.3252 128.1 89.2334 129.217 89.2334 130.562C89.2334 131.096 89.373 131.527 89.6523 131.857C89.9316 132.179 90.2956 132.34 90.7441 132.34C91.1419 132.34 91.6032 132.209 92.1279 131.946C92.6527 131.684 93.2409 131.29 93.8926 130.766V126.652ZM101.35 116.877C101.35 116.513 101.477 116.2 101.731 115.938C101.993 115.675 102.306 115.544 102.67 115.544C103.034 115.544 103.343 115.675 103.597 115.938C103.851 116.2 103.978 116.513 103.978 116.877C103.978 117.249 103.851 117.567 103.597 117.829C103.343 118.091 103.034 118.223 102.67 118.223C102.306 118.223 101.993 118.091 101.731 117.829C101.477 117.567 101.35 117.249 101.35 116.877ZM103.8 122.184V129.433C103.8 130.541 103.817 131.24 103.851 131.527C103.885 131.815 104.007 132.035 104.219 132.188C104.431 132.34 104.807 132.416 105.349 132.416H105.615V133H100.017V132.416H100.448C101.049 132.416 101.439 132.331 101.616 132.162C101.803 131.984 101.908 131.777 101.934 131.54C101.968 131.295 101.985 130.592 101.985 129.433V126.284C101.985 125.065 101.925 124.321 101.807 124.05C101.697 123.779 101.544 123.61 101.35 123.542C101.164 123.474 100.834 123.44 100.36 123.44H100.017V122.856C101.523 122.704 102.691 122.48 103.521 122.184H103.8ZM111.397 115.544V129.433C111.397 130.541 111.41 131.24 111.435 131.527C111.469 131.815 111.592 132.035 111.803 132.188C112.015 132.34 112.391 132.416 112.933 132.416H113.238V133H107.677V132.416H108.033C108.54 132.416 108.9 132.348 109.112 132.213C109.332 132.069 109.463 131.87 109.505 131.616C109.548 131.362 109.569 130.634 109.569 129.433V119.149C109.569 118.058 109.471 117.372 109.277 117.093C109.082 116.805 108.608 116.661 107.855 116.661V116.077C108.371 116.077 108.976 116.018 109.67 115.899C110.373 115.781 110.855 115.662 111.118 115.544H111.397ZM116.01 133.33V129.915H116.505C117.081 131.887 118.109 132.873 119.59 132.873C120.234 132.873 120.712 132.678 121.025 132.289C121.347 131.9 121.507 131.472 121.507 131.007C121.507 130.465 121.338 130.021 121 129.674C120.653 129.327 119.98 128.908 118.981 128.417C117.932 127.901 117.178 127.393 116.721 126.894C116.264 126.403 116.036 125.798 116.036 125.078C116.036 124.393 116.281 123.741 116.772 123.123C117.263 122.497 117.953 122.184 118.841 122.184C119.747 122.184 120.496 122.552 121.088 123.288C121.215 123.161 121.38 122.852 121.584 122.361H122.053V125.573H121.584C121.414 124.803 121.084 124.143 120.593 123.593C120.111 123.034 119.54 122.755 118.879 122.755C118.372 122.755 117.961 122.911 117.648 123.225C117.335 123.538 117.178 123.902 117.178 124.316C117.178 124.773 117.352 125.167 117.699 125.497C118.037 125.836 118.685 126.221 119.641 126.652C121.08 127.304 121.96 127.939 122.282 128.557C122.603 129.183 122.764 129.784 122.764 130.359C122.764 131.265 122.464 132.001 121.863 132.568C121.27 133.135 120.521 133.419 119.616 133.419C118.659 133.419 117.809 133.025 117.064 132.238C116.836 132.492 116.649 132.856 116.505 133.33H116.01ZM49.5326 176.792H55.766V178.709H49.5326V176.792ZM84.7596 183H80.1258C79.3048 182.424 78.048 180.918 76.3553 178.48C75.8136 177.702 75.2508 176.957 74.6668 176.246C74.0828 175.527 73.6808 175.091 73.4607 174.938C73.2407 174.778 72.8979 174.697 72.4324 174.697H71.7469V178.519C71.7469 179.873 71.7765 180.761 71.8357 181.185C71.9035 181.599 72.0727 181.908 72.3436 182.111C72.6229 182.314 73.1518 182.416 73.9305 182.416H74.7557V183H66.5164V182.416H67.075C67.8113 182.416 68.3191 182.323 68.5984 182.137C68.8862 181.951 69.0682 181.663 69.1443 181.273C69.2205 180.876 69.2586 179.957 69.2586 178.519V170.076C69.2586 168.705 69.2205 167.821 69.1443 167.423C69.0682 167.025 68.8989 166.75 68.6365 166.598C68.3742 166.445 67.8071 166.369 66.9354 166.369H66.6434V165.785L69.1063 165.658C70.7482 165.582 72.0516 165.544 73.0164 165.544C74.6583 165.544 75.9913 165.696 77.0154 166.001C78.048 166.306 78.8816 166.805 79.5164 167.499C80.1512 168.193 80.4686 169.022 80.4686 169.987C80.4686 171.113 80.0538 172.074 79.2244 172.869C78.395 173.665 77.1762 174.16 75.5682 174.354C76.2876 174.701 77.4471 175.954 79.0467 178.112C80.3501 179.864 81.3742 181.011 82.1189 181.553C82.8637 182.094 83.7439 182.382 84.7596 182.416V183ZM71.7469 174.113C72.3816 174.096 73.0376 174.071 73.7146 174.037C74.3917 174.003 74.9799 173.91 75.4793 173.758C75.9786 173.605 76.3807 173.385 76.6854 173.098C76.9985 172.801 77.2439 172.416 77.4217 171.942C77.5994 171.468 77.6883 170.884 77.6883 170.19C77.6883 168.98 77.3836 168.011 76.7742 167.283C76.1733 166.555 74.8572 166.191 72.826 166.191C72.5128 166.191 72.1531 166.208 71.7469 166.242V174.113ZM95.3145 176.119H88.0654C88.0316 176.618 88.0146 176.991 88.0146 177.236C88.0146 179.064 88.2982 180.44 88.8652 181.362C89.4408 182.276 90.2956 182.733 91.4297 182.733C92.9701 182.733 94.0618 182.044 94.7051 180.664H95.3145C95.0436 181.527 94.5062 182.204 93.7021 182.695C92.8981 183.178 92.0221 183.419 91.0742 183.419C90.194 183.419 89.3604 183.199 88.5732 182.759C87.7946 182.31 87.1556 181.68 86.6562 180.867C86.1569 180.055 85.9072 179.069 85.9072 177.909C85.9072 176.267 86.3896 174.905 87.3545 173.821C88.3193 172.729 89.5254 172.184 90.9727 172.184C92.3353 172.184 93.389 172.598 94.1338 173.428C94.8786 174.257 95.2721 175.154 95.3145 176.119ZM93.0928 175.611C93.1182 175.417 93.1309 175.243 93.1309 175.091C93.1309 174.346 92.9108 173.771 92.4707 173.364C92.0391 172.95 91.5059 172.742 90.8711 172.742C89.3307 172.742 88.4124 173.699 88.1162 175.611H93.0928ZM109.056 181.096H109.526C109.449 182.543 108.738 183.267 107.393 183.267C106.817 183.267 106.36 183.114 106.022 182.81C105.692 182.505 105.476 182.052 105.374 181.451C104.528 182.052 103.753 182.505 103.051 182.81C102.357 183.114 101.735 183.267 101.185 183.267C100.482 183.267 99.8772 183.063 99.3693 182.657C98.8615 182.251 98.6076 181.714 98.6076 181.045C98.6076 180.173 99.0308 179.411 99.8772 178.76C100.732 178.108 101.908 177.473 103.406 176.855L105.374 176.056V175.548C105.374 174.828 105.328 174.308 105.235 173.986C105.141 173.665 104.9 173.377 104.511 173.123C104.122 172.869 103.61 172.742 102.975 172.742C101.705 172.742 100.999 173.165 100.855 174.012C100.719 174.875 100.364 175.307 99.7883 175.307C99.272 175.307 99.0139 175.061 99.0139 174.57C99.0139 174.088 99.3566 173.572 100.042 173.021C100.728 172.463 101.794 172.184 103.241 172.184C104.316 172.184 105.15 172.353 105.742 172.691C106.335 173.03 106.724 173.415 106.91 173.847C107.105 174.278 107.202 174.938 107.202 175.827V180.029C107.202 181.011 107.253 181.642 107.355 181.921C107.456 182.2 107.676 182.34 108.015 182.34C108.573 182.34 108.92 181.925 109.056 181.096ZM105.374 176.652L103.99 177.211C101.807 178.1 100.715 179.217 100.715 180.562C100.715 181.096 100.855 181.527 101.134 181.857C101.413 182.179 101.777 182.34 102.226 182.34C102.624 182.34 103.085 182.209 103.61 181.946C104.134 181.684 104.723 181.29 105.374 180.766V176.652ZM121.033 180.461H121.591C121.016 182.433 119.577 183.419 117.275 183.419C115.794 183.419 114.545 182.915 113.53 181.908C112.523 180.901 112.019 179.568 112.019 177.909C112.019 176.208 112.565 174.828 113.657 173.771C114.748 172.713 116.039 172.184 117.529 172.184C118.426 172.184 119.251 172.382 120.004 172.78C120.758 173.17 121.134 173.648 121.134 174.215C121.134 174.426 121.062 174.625 120.918 174.812C120.783 174.998 120.584 175.091 120.322 175.091C119.763 175.091 119.42 174.765 119.293 174.113C119.192 173.622 119.035 173.28 118.824 173.085C118.604 172.89 118.176 172.793 117.541 172.793C116.407 172.793 115.552 173.187 114.977 173.974C114.41 174.761 114.126 175.946 114.126 177.528C114.126 179.162 114.431 180.44 115.04 181.362C115.658 182.285 116.589 182.746 117.833 182.746C119.509 182.746 120.576 181.984 121.033 180.461ZM130.648 173.187H127.512V179.471C127.512 180.436 127.555 181.087 127.639 181.426C127.724 181.756 127.902 182.022 128.172 182.226C128.452 182.429 128.748 182.53 129.061 182.53C129.671 182.53 130.199 182.183 130.648 181.489L131.054 181.73C130.792 182.289 130.403 182.712 129.886 183C129.379 183.279 128.862 183.419 128.338 183.419C127.728 183.419 127.191 183.241 126.725 182.886C126.268 182.522 125.98 182.099 125.862 181.616C125.752 181.134 125.697 180.287 125.697 179.077V173.187H124.186V172.603C124.88 172.586 125.502 172.294 126.052 171.727C126.602 171.16 126.954 170.364 127.106 169.34H127.512V172.603H130.648V173.187ZM49.5326 226.792H55.766V228.709H49.5326V226.792ZM75.9871 233.406H75.2L69.2586 219.721C69.1486 219.475 68.9751 219.052 68.7381 218.451C68.408 217.639 68.061 217.093 67.6971 216.813C67.3331 216.534 66.7449 216.386 65.9324 216.369V215.785H73.3465V216.369C72.424 216.369 71.8019 216.437 71.4803 216.572C71.1671 216.708 71.0105 216.966 71.0105 217.347C71.0105 217.592 71.2094 218.168 71.6072 219.073L76.5584 230.499L80.532 220.99C81.2007 219.399 81.535 218.362 81.535 217.88C81.535 216.907 80.8452 216.403 79.4656 216.369V215.785H84.7215V216.369C84.1883 216.386 83.7186 216.576 83.3123 216.94C82.9061 217.304 82.5548 217.838 82.2586 218.54L81.1033 221.244L75.9871 233.406ZM95.0352 222.603V229.42C95.0352 230.554 95.0521 231.265 95.0859 231.553C95.1198 231.84 95.2425 232.056 95.4541 232.2C95.6742 232.344 96.0635 232.416 96.6221 232.416V233C95.3356 233.017 94.3962 233.152 93.8037 233.406H93.6514C93.3805 232.941 93.2367 232.137 93.2197 230.994C92.7035 231.798 92.111 232.403 91.4424 232.81C90.7822 233.216 90.0501 233.419 89.2461 233.419C88.5521 233.419 87.9385 233.262 87.4053 232.949C86.8721 232.628 86.5039 232.238 86.3008 231.781C86.1061 231.324 86.0088 230.634 86.0088 229.712V226.17C86.0088 224.968 85.9876 224.236 85.9453 223.974C85.903 223.703 85.7676 223.504 85.5391 223.377C85.319 223.25 84.9085 223.187 84.3076 223.187V222.603H87.8369V229.813C87.8369 230.524 87.8792 231.041 87.9639 231.362C88.0485 231.684 88.2643 231.967 88.6113 232.213C88.9583 232.45 89.3604 232.568 89.8174 232.568C90.4691 232.568 91.0911 232.357 91.6836 231.934C92.276 231.502 92.6781 231.049 92.8896 230.575C93.1097 230.093 93.2197 229.407 93.2197 228.519V226.17C93.2197 225.036 93.207 224.346 93.1816 224.101C93.1562 223.855 93.0462 223.644 92.8516 223.466C92.6654 223.28 92.2718 223.187 91.6709 223.187H91.4043V222.603H95.0352ZM108.98 226.119H101.731C101.697 226.618 101.68 226.991 101.68 227.236C101.68 229.064 101.963 230.44 102.53 231.362C103.106 232.276 103.961 232.733 105.095 232.733C106.635 232.733 107.727 232.044 108.37 230.664H108.98C108.709 231.527 108.171 232.204 107.367 232.695C106.563 233.178 105.687 233.419 104.739 233.419C103.859 233.419 103.026 233.199 102.238 232.759C101.46 232.31 100.821 231.68 100.321 230.867C99.8221 230.055 99.5725 229.069 99.5725 227.909C99.5725 226.267 100.055 224.905 101.02 223.821C101.985 222.729 103.191 222.184 104.638 222.184C106.001 222.184 107.054 222.598 107.799 223.428C108.544 224.257 108.937 225.154 108.98 226.119ZM106.758 225.611C106.783 225.417 106.796 225.243 106.796 225.091C106.796 224.346 106.576 223.771 106.136 223.364C105.704 222.95 105.171 222.742 104.536 222.742C102.996 222.742 102.078 223.699 101.781 225.611H106.758Z" fill="#8B8B8B"/>
<path d="M1 3L1.00001 247" stroke="white" stroke-width="1.5"/>
</svg>
