<svg width="12" height="12" viewBox="0 0 12 12" fill="none" xmlns="http://www.w3.org/2000/svg">
<path d="M4.99554 6.99107C4.99554 7.50804 4.62054 7.67143 4.15982 7.67143H2.95179V6.25446H4.18393C4.68214 6.25714 4.99554 6.46339 4.99554 6.99107V6.99107ZM4.78929 4.78661C4.78929 4.3125 4.42232 4.2 4.01518 4.2H2.95446V5.4H4.09821C4.50268 5.4 4.78929 5.22321 4.78929 4.78661V4.78661ZM8.33304 5.40804C7.84286 5.40804 7.51607 5.71339 7.48393 6.20357H9.15C9.10446 5.70804 8.84732 5.40804 8.33304 5.40804ZM12 1.28571V10.7143C12 11.4241 11.4241 12 10.7143 12H1.28571C0.575893 12 0 11.4241 0 10.7143V1.28571C0 0.575893 0.575893 0 1.28571 0H10.7143C11.4241 0 12 0.575893 12 1.28571ZM7.27768 4.09821H9.36161V3.59196H7.27768V4.09821ZM6.12589 7.05268C6.12589 6.40714 5.82054 5.85 5.18839 5.67054C5.64911 5.45089 5.89018 5.19643 5.89018 4.67946C5.89018 3.65625 5.12679 3.40714 4.24554 3.40714H1.82143V8.55H4.31518C5.25 8.54464 6.12589 8.09732 6.12589 7.05268V7.05268ZM10.1786 6.65625C10.1786 5.55536 9.53304 4.63661 8.36786 4.63661C7.23214 4.63661 6.46339 5.48839 6.46339 6.60804C6.46339 7.76786 7.19464 8.56339 8.36786 8.56339C9.25714 8.56339 9.83304 8.16429 10.1116 7.30982H9.20893C9.10982 7.62857 8.71071 7.79464 8.4 7.79464C7.8 7.79464 7.48661 7.44375 7.48661 6.84911H10.1705C10.1732 6.7875 10.1786 6.72054 10.1786 6.65625Z" fill="#E5E5E5"/>
</svg>
